<?xml version="1.0" standalone="no"?><!DOCTYPE svg PUBLIC "-//W3C//DTD SVG 1.1//EN" "http://www.w3.org/Graphics/SVG/1.1/DTD/svg11.dtd"><svg t="1647325479806" class="icon" viewBox="0 0 1024 1024" version="1.1" xmlns="http://www.w3.org/2000/svg" p-id="10422" xmlns:xlink="http://www.w3.org/1999/xlink" width="64" height="64"><defs><style type="text/css"></style></defs><path d="M503.466667 180.666667a298.666667 298.666667 0 1 0 0 597.333333 298.666667 298.666667 0 0 0 0-597.333333z m0 68.266666a230.4 230.4 0 1 1 0 460.8 230.4 230.4 0 0 1 0-460.8z" fill="#ffffff" p-id="10423"></path><path d="M684.4416 648.226133c38.638933 15.394133 67.584 39.458133 87.517867 69.632 22.357333 33.8944 29.764267 67.515733 29.764266 91.886934a34.133333 34.133333 0 0 1-68.027733 3.9936l-0.443733-7.304534a75.1616 75.1616 0 0 0-0.273067-2.389333l-0.989867-6.144a115.234133 115.234133 0 0 0-16.9984-42.461867c-12.356267-18.705067-30.378667-33.655467-55.808-43.793066a34.133333 34.133333 0 0 1 25.258667-63.419734z m-306.858667 17.066667a34.133333 34.133333 0 0 1-16.213333 45.499733c-21.0944 10.001067-37.9904 25.361067-51.3024 45.021867-8.977067 13.243733-15.803733 27.613867-20.650667 41.984l-2.389333 7.68-0.887467 3.1744-1.194666 4.983467-0.341334 1.706666a34.133333 34.133333 0 0 1-67.310933-11.195733c3.754667-22.698667 14.472533-54.510933 36.2496-86.6304 19.797333-29.252267 45.806933-52.906667 78.609067-68.437333a34.133333 34.133333 0 0 1 45.4656 16.247466z m234.359467-118.442667a34.133333 34.133333 0 0 1-10.513067 47.104l-13.653333 8.6016c-27.511467 16.7936-50.858667 24.4736-84.309333 24.4736-38.0928 0-59.8016-8.8064-97.962667-33.109333a34.133333 34.133333 0 1 1 36.625067-57.582933l11.8784 7.338666c19.933867 11.844267 30.788267 15.086933 49.4592 15.086934 17.544533 0 28.5696-3.003733 43.1104-11.1616l9.454933-5.700267 8.8064-5.563733a34.133333 34.133333 0 0 1 47.104 10.513066z" fill="#ffffff" p-id="10424"></path></svg>