<?xml version="1.0" standalone="no"?><!DOCTYPE svg PUBLIC "-//W3C//DTD SVG 1.1//EN" "http://www.w3.org/Graphics/SVG/1.1/DTD/svg11.dtd"><svg t="1660804662991" class="icon" viewBox="0 0 1024 1024" version="1.1" xmlns="http://www.w3.org/2000/svg" p-id="4485" xmlns:xlink="http://www.w3.org/1999/xlink" width="200" height="200"><defs><style type="text/css"></style></defs><path d="M837.818182 1000.727273H186.181818c-51.2 0-93.090909-41.890909-93.090909-93.090909V116.363636c0-51.2 41.890909-93.090909 93.090909-93.090909h651.636364c51.2 0 93.090909 41.890909 93.090909 93.090909v791.272728c0 51.2-41.890909 93.090909-93.090909 93.090909zM186.181818 93.090909c-13.963636 0-23.272727 9.309091-23.272727 23.272727v791.272728c0 13.963636 9.309091 23.272727 23.272727 23.272727h651.636364c13.963636 0 23.272727-9.309091 23.272727-23.272727V116.363636c0-13.963636-9.309091-23.272727-23.272727-23.272727H186.181818z" fill="#0065b1" p-id="4486"></path><path d="M167.563636 1000.727273H162.909091c-39.563636-4.654545-69.818182-44.218182-69.818182-93.090909V116.363636c0-48.872727 30.254545-88.436364 67.490909-93.090909h6.981818l528.290909 116.363637c39.563636 2.327273 72.145455 41.890909 72.145455 93.090909v558.545454c0 48.872727-30.254545 90.763636-69.818182 93.090909L167.563636 1000.727273z m2.327273-905.309091c-4.654545 2.327273-6.981818 11.636364-6.981818 20.945454v791.272728c0 9.309091 2.327273 18.618182 6.981818 20.945454L691.2 814.545455c2.327273-2.327273 6.981818-11.636364 6.981818-23.272728V232.727273c0-11.636364-4.654545-20.945455-6.981818-23.272728l-11.636364-2.327272L169.890909 95.418182z" fill="#0065b1" p-id="4487"></path><path d="M628.363636 570.181818c0 18.618182-16.290909 34.909091-34.909091 34.909091s-34.909091-16.290909-34.90909-34.909091v-116.363636c0-18.618182 16.290909-34.909091 34.90909-34.909091s34.909091 16.290909 34.909091 34.909091v116.363636z" fill="#0065b1" p-id="4488"></path></svg>