<svg id="图层_1" data-name="图层 1" xmlns="http://www.w3.org/2000/svg" viewBox="0 0 80.5 46.14"><defs><style>.cls-1,.cls-2{fill:#0065b1;}.cls-1{fill-rule:evenodd;}</style></defs><path class="cls-1" d="M476.62,492.12v-4.55H466.55v3.5a1,1,0,0,0,1.06,1.05h9Zm15-4.55H481.56v4.55h9a1,1,0,0,0,1.06-1.05v-3.5ZM481.56,480v4.89h10.08V480H481.56Zm-15,4.89h10.07V480H466.56v4.54h0Zm23.16,23v-5.48h-4.93v5.48H474.71a1,1,0,0,1-1.07-1.05v-9.11h-5.06v10.16h0a2.79,2.79,0,0,0,3,2.78h18.16ZM476.62,506h4.94v-5.68h9.74a.48.48,0,0,1,.52.49c0,6.84.07,8.18,4.62,10.78l1.84-1.58c-1.85-1.66-1.76-5.59-1.65-9.24,0-.29,0-.69,0-1.11a2,2,0,0,0-2-2.07H476.62Zm-10-8.41c0,.85,0,2.49,0,3,0,7,0,8.33-4.61,11L460.2,510c1.85-1.66,1.76-5.59,1.65-9.24,0-.89-.05-2.83-.05-3.18Zm13.28-2.64H464.45a2.79,2.79,0,0,1-3-2.78h0V477.17h30.83A4.15,4.15,0,0,1,496.7,481v11.13h0a2.79,2.79,0,0,1-3,2.78H479.91Z" transform="translate(-460.2 -477.17)"/><path class="cls-1" d="M503.24,511.53l-1.06-1.64c3.17-1.36,5.88-13.82,5.66-16.49.09-2.15-1.85-3.36-3-3.9v-5.37c2.2.79,7.67,3.31,7.74,9.53a18.09,18.09,0,0,1-.31,3.43c-1,5.84-2.38,13.55-9,14.44m17.4-19.7c0,.86,0,8.2,0,8.76,0,7,0,8.33-4.62,11L514.22,510c1.85-1.66,1.75-5.59,1.65-9.24,0-.89-.06-8.54-.06-8.89Zm13.63,0c0,.86,0,8.2,0,8.76,0,7,0,8.33,4.61,11L540.7,510c-1.85-1.66-1.76-5.59-1.65-9.24,0-.89.05-8.54.05-8.89Zm-9.39-.1h4.94v18.9h-4.94Zm7-9.68a2.9,2.9,0,0,1,3,2.25,3.31,3.31,0,0,1,1.47-.47,3.6,3.6,0,0,1,3.79,3.45h0a2.64,2.64,0,0,1,0,.29v.37a1.4,1.4,0,0,1-1.36,1.43h-24v-2.72h0l3.62-5.16H514.2v-2.73h10.68v-1.59h4.94v1.59h10.67v2.73h-16.4l-3.47,5.16h16.19a2.06,2.06,0,0,0-1.87-1.57h-1.22l-.08.06.06-.11a2.88,2.88,0,0,0-2.93-2,2.73,2.73,0,0,0-1.32.47A2.87,2.87,0,0,1,531.85,482.05Zm-23.57-4.88a3.23,3.23,0,1,1-3,3.22A3.12,3.12,0,0,1,508.28,477.17Z" transform="translate(-460.2 -477.17)"/><path class="cls-2" d="M521,519.71a4.59,4.59,0,0,1,.31-1.81,3.3,3.3,0,0,1,.65-1,2.58,2.58,0,0,1,.89-.64,3.81,3.81,0,0,1,1.49-.27,3.22,3.22,0,0,1,2.44,1,4.4,4.4,0,0,1,0,5.37,3.58,3.58,0,0,1-4.88,0,3.67,3.67,0,0,1-.91-2.64m1.43-.05a2.66,2.66,0,0,0,.55,1.82,1.74,1.74,0,0,0,1.37.61,1.72,1.72,0,0,0,1.37-.61,2.71,2.71,0,0,0,.54-1.84,2.68,2.68,0,0,0-.52-1.81,1.75,1.75,0,0,0-1.39-.6,1.77,1.77,0,0,0-1.39.61A2.71,2.71,0,0,0,522.43,519.66Zm-21.15.94v-1.19h3v2.39h0c0,1.08-2.09,1.51-2.95,1.51a3.66,3.66,0,0,1-1.88-.46,2.9,2.9,0,0,1-1.21-1.33,4.38,4.38,0,0,1-.41-1.88,4.16,4.16,0,0,1,.45-2,3.11,3.11,0,0,1,1.33-1.31,3.42,3.42,0,0,1,1.65-.35,3.26,3.26,0,0,1,2,.55,2.45,2.45,0,0,1,.92,1.52l-.48.09c-.32.05-.92,0-1.12-.3a1.56,1.56,0,0,0-.33-.35,1.69,1.69,0,0,0-1-.3,1.84,1.84,0,0,0-1.45.6,2.51,2.51,0,0,0-.54,1.75,2.84,2.84,0,0,0,.54,1.89,1.83,1.83,0,0,0,1.43.62,2.5,2.5,0,0,0,.88-.17,3,3,0,0,0,.75-.43v-.89Zm-14.52-4.46v1.41h0v4.26h0c0,.11,0,1.37-1,1.37h-.38v-5.67h0c0-.12,0-1.37,1-1.37Zm-17.24,7.05v-7.05h5.11v.23h0s-.1,1-1,1h-2.75v1.57h3.45v.28h0v.16c0,.27-.09.74-.5.74h-2.95V522h3.85v.21h0a1.12,1.12,0,0,1-1.1,1Zm-8.31-2.29.22,0h.1a1.37,1.37,0,0,1,1.22.48,1.32,1.32,0,0,0,.32.44,1.45,1.45,0,0,0,1,.32,1.47,1.47,0,0,0,1-.29.87.87,0,0,0,.35-.68.64.64,0,0,0-.15-.42,1,1,0,0,0-.5-.3,11.39,11.39,0,0,0-1.11-.31,3.8,3.8,0,0,1-1.56-.7,1.88,1.88,0,0,1-.34-2.43,1.91,1.91,0,0,1,.86-.72A3.4,3.4,0,0,1,464,516a2.82,2.82,0,0,1,1.95.58,2.09,2.09,0,0,1,.69,1.57h-.4a1.41,1.41,0,0,1-1.18-.51.36.36,0,0,0-.07-.1.53.53,0,0,0-.13-.13,1.35,1.35,0,0,0-.87-.24,1.56,1.56,0,0,0-1,.25.55.55,0,0,0,0,.87,3.58,3.58,0,0,0,1.28.47,6.4,6.4,0,0,1,1.5.51,2,2,0,0,1,.76.72,2.14,2.14,0,0,1,.27,1.12,2.09,2.09,0,0,1-.33,1.13,2,2,0,0,1-.93.79,3.85,3.85,0,0,1-1.5.25,3,3,0,0,1-2-.61A2.73,2.73,0,0,1,461.21,520.9Zm16.3,2.29v-7.05h5.11v.23h0s-.1,1-1,1h-2.75v1.57h3.45v.28h0v.16c0,.27-.09.74-.5.74h-2.95V522h3.85v.21h0a1.12,1.12,0,0,1-1.1,1Zm16.18-7.05v4.55L491,516.14H489.6v7.05H490c1,0,1-1.26,1-1.37h0v-3.08l2.69,4.46h1.39v-5.67h0c0-.12,0-1.37-1-1.37ZM511.83,519h-3.35v-1.68h2c.12,0,1.37,0,1.37-.87v-.32h-4.75v7.05h.38c1,0,1-1.26,1-1.37h0v-1.6h2c.12,0,1.37,0,1.37-.87Zm2.69-2.82v4.87h0v2.12h4.86v-.33c0-.83-1.25-.86-1.36-.87h-2.1v-3.7h0v-.71h0c0-.12,0-1.37-1-1.37Zm17.33,7-1.63-7.05h.26c.13,0,1.19,0,1.31.63h0l.9,4.21,1.26-4.84h1.64l1.26,4.84.9-4.21h0c.12-.6,1.18-.63,1.31-.63h.26l-1.63,7.05h-1.53l-1.37-5.27,0,.08,0-.08-1.37,5.27Z" transform="translate(-460.2 -477.17)"/></svg>