<?xml version="1.0" standalone="no"?><!DOCTYPE svg PUBLIC "-//W3C//DTD SVG 1.1//EN" "http://www.w3.org/Graphics/SVG/1.1/DTD/svg11.dtd"><svg t="1649224217364" class="icon" viewBox="0 0 1024 1024" version="1.1" xmlns="http://www.w3.org/2000/svg" p-id="8098" width="128" height="128" xmlns:xlink="http://www.w3.org/1999/xlink"><defs><style type="text/css"></style></defs><path d="M451.711412 414.880422a64.18834 64.18834 0 1 1-64.188341-64.188341 64.18834 64.18834 0 0 1 64.188341 64.188341z m-64.188341-24.619646a24.619646 24.619646 0 1 0 24.619646 24.619646 24.619646 24.619646 0 0 0-24.619646-24.659038zM649.239753 402.147141l-32.163105 35.915139c-4.431536-3.58462-25.968802-20.306284-51.7308-15.26418-33.128195 6.470043-48.195418 43.990383-50.30286 68.856225-2.708161 31.385124 12.349214 75.562617 47.26972 83.076532 29.435248 6.332173 54.832875-17.302687 58.033429-20.365371l33.768306 35.915139a108.326441 108.326441 0 0 1-37.707449 28.55879c-29.06103 13.19613-55.295724 9.28653-64.09971 7.878286-8.154027-1.329461-48.471158-8.863072-74.735397-45.221365-14.939201-20.680502-18.336712-41.095113-20.394914-54.389721-2.136985-13.442327-11.068993-70.44173 28.027005-115.83051 8.026005-9.316074 35.186398-40.868612 80.949395-42.89727 47.043219-2.087746 78.034429 28.59818 83.08638 33.768306z" p-id="8099" fill="#2c2c2c"></path><path d="M965.759766 1024H42.660922A42.660922 42.660922 0 0 1 0 981.32923V221.133658a42.660922 42.660922 0 0 1 42.660922-42.660922h923.098844a42.660922 42.660922 0 0 1 42.660922 42.660922v760.195572a42.660922 42.660922 0 0 1-42.660922 42.67077zM946.379181 244.404147H62.041507v713.654594h884.337674z" p-id="8100" fill="#2c2c2c"></path><path d="M11.640168 738.924198h985.1502v62.061203H11.640168z" p-id="8101" fill="#2c2c2c"></path><path d="M166.77348 824.246043m21.24183 0l4.057318 0q21.24183 0 21.24183 21.24183l0 66.11852q0 21.24183-21.24183 21.241831l-4.057318 0q-21.24183 0-21.24183-21.241831l0-66.11852q0-21.24183 21.24183-21.24183Z" p-id="8102" fill="#2c2c2c"></path><path d="M271.495605 824.246043m21.24183 0l4.057318 0q21.24183 0 21.24183 21.24183l0 66.11852q0 21.24183-21.24183 21.241831l-4.057318 0q-21.24183 0-21.24183-21.241831l0-66.11852q0-21.24183 21.24183-21.24183Z" p-id="8103" fill="#2c2c2c"></path><path d="M376.21773 824.246043m21.24183 0l4.057318 0q21.24183 0 21.24183 21.24183l0 66.11852q0 21.24183-21.24183 21.241831l-4.057318 0q-21.24183 0-21.24183-21.241831l0-66.11852q0-21.24183 21.24183-21.24183Z" p-id="8104" fill="#2c2c2c"></path><path d="M480.939855 824.246043m21.24183 0l4.057318 0q21.24183 0 21.24183 21.24183l0 66.11852q0 21.24183-21.24183 21.241831l-4.057318 0q-21.24183 0-21.24183-21.241831l0-66.11852q0-21.24183 21.24183-21.24183Z" p-id="8105" fill="#2c2c2c"></path><path d="M585.66198 824.246043m21.24183 0l4.057318 0q21.24183 0 21.24183 21.24183l0 66.11852q0 21.24183-21.24183 21.241831l-4.057318 0q-21.24183 0-21.24183-21.241831l0-66.11852q0-21.24183 21.24183-21.24183Z" p-id="8106" fill="#2c2c2c"></path><path d="M690.384105 824.246043m21.24183 0l4.057318 0q21.24183 0 21.24183 21.24183l0 66.11852q0 21.24183-21.24183 21.241831l-4.057318 0q-21.24183 0-21.24183-21.241831l0-66.11852q0-21.24183 21.24183-21.24183Z" p-id="8107" fill="#2c2c2c"></path><path d="M795.096382 824.246043m21.24183 0l4.057318 0q21.24183 0 21.24183 21.24183l0 66.11852q0 21.24183-21.24183 21.241831l-4.057318 0q-21.24183 0-21.24183-21.241831l0-66.11852q0-21.24183 21.24183-21.24183Z" p-id="8108" fill="#2c2c2c"></path></svg>