<?xml version="1.0" standalone="no"?><!DOCTYPE svg PUBLIC "-//W3C//DTD SVG 1.1//EN" "http://www.w3.org/Graphics/SVG/1.1/DTD/svg11.dtd"><svg t="1633101979389" class="icon" viewBox="0 0 1024 1024" version="1.1" xmlns="http://www.w3.org/2000/svg" p-id="10547" xmlns:xlink="http://www.w3.org/1999/xlink" width="200" height="200"><defs><style type="text/css"></style></defs><path d="M789.333333 938.666667h-554.666666A64.085333 64.085333 0 0 1 180.666667 874.666667v-725.333334A64.085333 64.085333 0 0 1 234.666667 85.333333h384.981333a192.426667 192.426667 0 0 1 114.602667 37.717334 415.914667 415.914667 0 0 1 81.365333 81.365333A192.426667 192.426667 0 0 1 853.333333 319.018667V874.666667a64.085333 64.085333 0 0 1-64 64zM234.666667 128a21.376 21.376 0 0 0-21.333334 21.333333v725.333334a21.376 21.376 0 0 0 21.333334 21.333333h554.666666a21.376 21.376 0 0 0 21.333334-21.333333V319.018667a149.333333 149.333333 0 0 0-29.226667-89.002667 369.578667 369.578667 0 0 0-72.789333-72.789333A149.333333 149.333333 0 0 0 619.648 128z" p-id="10548" fill="#DC0E00"></path><path d="M832 426.666667a21.333333 21.333333 0 0 1-21.333333-21.333334v-42.666666A64.085333 64.085333 0 0 0 746.666667 298.666667h-85.333334a21.333333 21.333333 0 0 1-21.333333-21.333334v-85.333333a21.333333 21.333333 0 0 1 42.666667 0V256h64A106.752 106.752 0 0 1 853.333333 362.666667v42.666666a21.333333 21.333333 0 0 1-21.333333 21.333334zM366.506667 455.125333a21.248 21.248 0 0 1-16.469334-7.850666L303.530667 390.4a21.333333 21.333333 0 0 1 32.981333-26.965333l30.037333 36.693333 64.938667-79.36a21.333333 21.333333 0 0 1 33.024 26.965333l-81.493333 99.584a21.248 21.248 0 0 1-16.469334 7.850667zM366.506667 625.792a21.248 21.248 0 0 1-16.469334-7.850667l-46.506666-56.917333a21.333333 21.333333 0 0 1 32.981333-26.965333l30.037333 36.693333 64.938667-79.36a21.333333 21.333333 0 0 1 33.024 26.965333l-81.493333 99.584a21.248 21.248 0 0 1-16.469334 7.850667zM366.506667 796.458667a21.248 21.248 0 0 1-16.469334-7.850667l-46.506666-56.917333a21.333333 21.333333 0 0 1 32.981333-26.965334l30.037333 36.693334 64.938667-79.36a21.333333 21.333333 0 0 1 33.024 26.965333l-81.493333 99.584a21.248 21.248 0 0 1-16.469334 7.850667zM704 426.666667h-213.333333a21.333333 21.333333 0 0 1 0-42.666667h213.333333a21.333333 21.333333 0 0 1 0 42.666667zM704 597.333333h-213.333333a21.333333 21.333333 0 0 1 0-42.666666h213.333333a21.333333 21.333333 0 0 1 0 42.666666zM704 768h-213.333333a21.333333 21.333333 0 0 1 0-42.666667h213.333333a21.333333 21.333333 0 0 1 0 42.666667z" p-id="10549" fill="#DC0E00"></path></svg>